# xmcd CD database file
#
# Track frame offsets:
#	150
#	16295
#	31696
#	45241
#	62876
#	82317
#	99167
#	122257
#	139159
#	155141
#	174222
#	192074
#	193791
#	207862
#	221655
#	241304
#	260855
#
# Disc length: 3802 seconds
#
# Revision: 0
# Processed by: cddbd v1.5.1PL0 Copyright (c) Steve Scherf et al.
# Submitted via: CDex 1.51
#
DISCID=e70ed811
DTITLE=Doug Moreland - Everyone Knows My Name
DYEAR=2004
DGENRE=Country
TTITLE0=Everyone Knows My Name
TTITLE1=Baja Holiday
TTITLE2=Happy Hour
TTITLE3=Prayers And Wishes
TTITLE4=The River Anthem
TTITLE5=Easy Money
TTITLE6=Southern Belle
TTITLE7=Love Lee Ann
TTITLE8=Skeleton
TTITLE9=Carolina Moonshiner
TTITLE10=The First (But You're The One)
TTITLE11=The Horses Toast
TTITLE12=I'll Never Be Homeless
TTITLE13=I Wanna Drive A Truck!
TTITLE14=Before I Leave Mexico
TTITLE15=Nothin' But A Cowboy
TTITLE16=Horse Walking
EXTD=YEAR: 2004
EXTT0=
EXTT1=
EXTT2=
EXTT3=
EXTT4=
EXTT5=
EXTT6=
EXTT7=
EXTT8=
EXTT9=
EXTT10=
EXTT11=
EXTT12=
EXTT13=
EXTT14=
EXTT15=
EXTT16=
PLAYORDER=
